#!OML:ASF F:\VICON\USERDATA\INSTALL\Justin_Nancy\Justin_Nancy.ASF
:FULLY-SPECIFIED
:DEGREES
136
root -0.609027 16.8388 20.49 16.691 -9.93229 5.98759
lowerback 15.0367 -1.38372 -7.5185
upperback -0.0446181 -3.07156 0.914974
thorax -8.06125 -1.16096 5.90926
lowerneck -28.721 -1.12113 -8.83343
upperneck 2.30674 0.625304 8.3664
head 5.04681 0.865852 4.2242
rclavicle 2.17669e-014 4.96962e-015
rhumerus -79.935 5.98868 -82.2949
rradius 119.548
rwrist 1.99566
rhand -17.7101 35.8879
rfingers 7.12502
rthumb 8.55012 6.08103
lclavicle 2.17669e-014 4.96962e-015
lhumerus -42.2949 -27.1206 96.7497
lradius 122.721
lwrist 3.17441
lhand -32.3102 8.58796
lfingers 7.12502
lthumb -5.54819 38.4953
rfemur -57.7506 -1.84771 19.1351
rtibia 38.9655
rfoot -5.59459 3.87489
rtoes -29.7419
lfemur 15.242 -6.5952 -34.4605
ltibia 32.1555
lfoot 44.1501 -11.3146
ltoes 1.96808
137
root -0.628196 16.8266 21.0619 16.2688 -9.36158 6.04946
lowerback 15.4917 -1.47414 -7.30477
upperback 0.161602 -3.17018 1.03536
thorax -8.08023 -1.2187 5.95699
lowerneck -28.497 -1.13072 -9.01955
upperneck 1.56899 0.705595 8.18505
head 4.76871 0.887012 4.1897
rclavicle 1.73937e-014 -1.39149e-014
rhumerus -78.437 5.08205 -81.6942
rradius 118.359
rwrist 2.43361
rhand -17.6377 35.4326
rfingers 7.12502
rthumb 8.61997 5.62853
lclavicle 1.73937e-014 -1.39149e-014
lhumerus -43.3077 -26.1749 97.0062
lradius 119.34
lwrist 4.24545
lhand -31.5525 10.2011
lfingers 7.12502
lthumb -4.81664 40.1264
rfemur -56.5195 -2.39257 19.3652
rtibia 38.9997
rfoot -4.72223 3.335
rtoes -26.5571
lfemur 13.326 -6.49087 -33.8714
ltibia 37.1929
lfoot 45.3287 -12.4482
ltoes 4.05042
138
root -0.651239 16.8007 21.6446 15.8247 -8.49587 6.01624
lowerback 15.768 -1.65692 -6.84909
upperback 0.444531 -3.32995 1.13846
thorax -7.91935 -1.32677 5.8479
lowerneck -28.4266 -1.15169 -9.17437
upperneck 1.11171 0.750477 8.10261
head 4.60648 0.90235 4.1855
rclavicle -1.11319e-014 1.59028e-015
rhumerus -76.7968 4.06811 -81.2697
rradius 117.045
rwrist 2.65441
rhand -17.6511 34.8647
rfingers 7.12502
rthumb 8.60706 5.06012
lclavicle -1.11319e-014 1.59028e-015
lhumerus -44.0266 -25.1138 96.9655
lradius 115.79
lwrist 5.07401
lhand -31.1765 11.3382
lfingers 7.12502
lthumb -4.45359 41.2714
rfemur -55.2401 -3.04671 19.5974
rtibia 39.6721
rfoot -4.54323 3.38423
rtoes -24.7113
lfemur 11.3615 -6.64138 -33.0456
ltibia 42.2938
lfoot 46.1835 -13.634
ltoes 5.87522
139
root -0.668608 16.7542 22.217 15.8783 -8.97245 5.39659
lowerback 15.4766 -1.40294 -6.40264
upperback 0.726422 -2.87651 1.24665
thorax -7.53084 -1.14829 5.5912
lowerneck -28.5213 -1.11684 -9.22934
upperneck 0.604814 0.843066 8.09015
head 4.44773 0.951342 4.1961
rclavicle 1.27222e-014 -9.54166e-015
rhumerus -74.8153 3.13587 -81.1063
rradius 115.58
rwrist 2.3916
rhand -17.6071 34.1983
rfingers 7.12502
rthumb 8.64955 4.39545
lclavicle 1.27222e-014 -9.54166e-015
lhumerus -44.3405 -23.8986 96.7
lradius 112.092
lwrist 5.41527
lhand -30.4765 12.294
lfingers 7.12502
lthumb -3.77757 42.2402
rfemur -54.6434 -2.60992 20.2865
rtibia 40.9047
rfoot -5.29283 4.53145
rtoes -20.9457
lfemur 8.64216 -5.70482 -32.0697
ltibia 47.5205
lfoot 45.7967 -13.8851
ltoes 5.18117
140
root -0.686246 16.7178 22.8015 15.6914 -8.69068 4.78432
lowerback 15.6074 -1.43094 -5.66518
upperback 0.882889 -2.77055 1.45594
thorax -7.47179 -1.12515 5.37741
lowerneck -28.141 -1.03083 -9.35804
upperneck 0.0302601 0.99542 8.00539
head 4.19914 1.01618 4.19311
rclavicle -1.47101e-014 1.11319e-014
rhumerus -73.0355 2.55054 -81.0095
rradius 114.24
rwrist 1.59318
rhand -17.3456 33.2993
rfingers 7.12502
rthumb 8.9019 3.50713
lclavicle -1.47101e-014 1.11319e-014
lhumerus -44.8432 -22.4707 96.6513
lradius 108.184
lwrist 5.54539
lhand -29.8334 13.2188
lfingers 7.12502
lthumb -3.15659 43.1752
rfemur -53.5975 -2.78924 21.0464
rtibia 42.6776
rfoot -6.46146 4.70485
rtoes -13.4801
lfemur 6.25517 -5.24286 -30.7424
ltibia 52.552
lfoot 44.8267 -13.8005
ltoes 5.25023
141
root -0.714838 16.6751 23.3455 15.4592 -7.33361 4.73644
lowerback 16.3177 -1.74704 -5.1588
upperback 0.811928 -3.11881 1.6464
thorax -7.91428 -1.28638 5.41094
lowerneck -27.7988 -1.01316 -9.38985
upperneck -0.238641 1.03451 7.70952
head 4.06217 1.01007 4.09653
rclavicle 5.18828e-014 -4.77083e-015
rhumerus -71.5277 1.93108 -80.9977
rradius 113.249
rwrist 0.743005
rhand -17.1253 32.0339
rfingers 7.12502
rthumb 9.11447 2.25087
lclavicle 5.18828e-014 -4.77083e-015
lhumerus -45.3598 -21.1761 96.6764
lradius 104.171
lwrist 6.65343
lhand -30.4677 11.8565
lfingers 7.12502
lthumb -3.76908 41.803
rfemur -52.4475 -3.72649 21.3087
rtibia 44.7758
rfoot -7.93622 2.79113
rtoes -8.24876
lfemur 3.59975 -5.68827 -29.4727
ltibia 57.6034
lfoot 42.8634 -13.7966
ltoes 2.82363
142
root -0.737106 16.6239 23.9316 14.3939 -7.32971 3.85657
lowerback 17.0826 -1.53954 -4.31371
upperback 1.38356 -2.69754 1.78921
thorax -7.8014 -1.12589 5.01202
lowerneck -27.9885 -1.03071 -9.17303
upperneck -0.43801 0.991798 7.37163
head 4.0257 0.970658 3.9466
rclavicle -2.68359e-014 1.19271e-015
rhumerus -69.3699 1.06498 -81.262
rradius 112.032
rwrist 0.200049
rhand -16.909 30.8856
rfingers 7.12502
rthumb 9.32318 1.11172
lclavicle -2.68359e-014 1.19271e-015
lhumerus -45.1571 -20.0091 96.1931
lradius 100.104
lwrist 8.19705
lhand -31.786 8.68377
lfingers 7.12502
lthumb -5.04214 38.6038
rfemur -50.008 -3.2812 22.0936
rtibia 47
rfoot -9.39059 0.114286
rtoes -5.0988
lfemur 2.17485 -4.64083 -27.8682
ltibia 62.366
lfoot 40.4483 -13.5019
ltoes 2.67064
143
root -0.771253 16.5927 24.4996 13.6599 -7.15267 3.07288
lowerback 17.8622 -1.38185 -3.67297
upperback 1.73015 -2.37014 2.00772
thorax -7.90789 -0.988029 4.83572
lowerneck -27.9942 -1.08051 -9.21109
upperneck -0.602262 0.959633 7.20427
head 3.97489 0.944895 3.8926
rclavicle 3.97569e-016 -3.97569e-015
rhumerus -66.9002 0.406014 -81.6017
rradius 110.554
rwrist -0.369084
rhand -16.7662 30.0017
rfingers 7.12502
rthumb 9.4609 0.234081
lclavicle 3.97569e-016 -3.97569e-015
lhumerus -44.9236 -18.4627 95.6994
lradius 95.9696
lwrist 9.30055
lhand -29.3247 10.6591
lfingers 7.12502
lthumb -2.66528 40.6222
rfemur -48.076 -2.39005 22.6211
rtibia 49.0692
rfoot -11.2071 -1.11043
rtoes 1.96773
lfemur 0.0642911 -3.83952 -26.0942
ltibia 67.0262
lfoot 37.5003 -12.7656
ltoes -0.3051
144
root -0.808678 16.5555 25.0355 13.8547 -6.20396 2.42523
lowerback 18.0092 -1.48688 -2.86904
upperback 1.67805 -2.327 2.30054
thorax -8.07009 -0.982683 4.69359
lowerneck -27.839 -1.12704 -9.23616
upperneck -0.708007 0.917992 6.97571
head 3.89891 0.907986 3.81824
rclavicle 5.04913e-014 2.38542e-015
rhumerus -64.5408 -0.0734051 -82.0671
rradius 109.42
rwrist -0.733903
rhand -16.7838 29.294
rfingers 7.12502
rthumb 9.44398 -0.474356
lclavicle 5.04913e-014 2.38542e-015
lhumerus -44.6792 -16.773 95.1845
lradius 91.8175
lwrist 9.88963
lhand -22.2231 16.0728
lfingers 7.12502
lthumb 4.19332 46.0112
rfemur -47.1625 -1.51144 23.0167
rtibia 50.7791
rfoot -13.0949 -3.2296
rtoes -1.2606
lfemur -3.60904 -3.88222 -24.1544
ltibia 71.8222
lfoot 35.3241 -11.8885
ltoes -2.63409
145
root -0.842847 16.4917 25.5833 13.3626 -5.885 1.37564
lowerback 17.9898 -1.30449 -1.90357
upperback 2.36825 -1.87979 2.54706
thorax -7.3763 -0.822892 4.27746
lowerneck -28.1952 -1.27412 -9.09769
upperneck -1.01206 0.741795 6.72218
head 3.86044 0.812898 3.69595
rclavicle 2.80286e-014 -2.22639e-014
rhumerus -61.3055 -0.6586 -82.7793
rradius 108.637
rwrist -0.905725
rhand -16.5191 28.8845
rfingers 7.12502
rthumb 9.69931 -0.872146
lclavicle 2.80286e-014 -2.22639e-014
lhumerus -43.9488 -16.1285 95.1075
lradius 88.1166
lwrist 14.9016
lhand -29.463 13.9947
lfingers 7.12502
lthumb -2.79887 43.9561
rfemur -44.7577 -0.0342809 23.825
rtibia 52.0283
rfoot -14.9888 -7.07064
rtoes -5.07551
lfemur -6.3299 -3.10821 -21.9987
ltibia 76.3422
lfoot 32.7818 -12.085
ltoes -4.59579
146
root -0.877461 16.4303 26.095 13.5381 -5.01619 0.0964684
lowerback 16.8573 -1.34339 -0.595198
upperback 3.46381 -1.68061 2.94098
thorax -5.62761 -0.799877 3.82764
lowerneck -28.9667 -1.45399 -8.9716
upperneck -1.92932 0.575366 6.47534
head 3.67547 0.734776 3.57922
rclavicle 3.51849e-014 3.06128e-014
rhumerus -56.7269 -1.01353 -83.7025
rradius 108.019
rwrist -0.88518
rhand -15.7918 28.6913
rfingers 7.12502
rthumb 10.401 -1.03146
lclavicle 3.51849e-014 3.06128e-014
lhumerus -42.1329 -14.8891 94.2424
lradius 85.4084
lwrist 17.5625
lhand -30.9742 17.2019
lfingers 7.12502
lthumb -4.25823 47.1391
rfemur -42.6572 0.992975 25.1
rtibia 52.7892
rfoot -16.7183 -10.2227
rtoes -6.7308
lfemur -10.3389 -2.80674 -19.3619
ltibia 80.8693
lfoot 30.3038 -12.636
ltoes -5.40605
